#!OML:ASF H:\Terrain\Patient Classification 1\PLAYGROUND\JustinFriday\JustinFriday.ASF
:FULLY-SPECIFIED
:DEGREES
511
root 3.13284 17.7117 10.7267 107.083 -83.2216 -100.188
lowerback 15.7142 -0.665879 3.21551
upperback -2.21902 0.0102145 2.84927
thorax -11.3095 -0.110383 1.29947
lowerneck 13.5721 -19.8536 -14.502
upperneck -16.0506 -27.2366 18.8039
head -2.28706 -14.2936 8.40835
rclavicle 1.47287e-014 -2.38045e-014
rhumerus 77.0114 -0.358891 -70.5077
rradius 57.1984
rwrist 15.2421
rhand -23.2771 -6.20663
rfingers 7.12502
rthumb 3.17549 -36.1627
lclavicle 1.47287e-014 -2.38045e-014
lhumerus 73.3021 9.19017 55.8246
lradius 52.1688
lwrist -18.7518
lhand -23.8567 -14.3363
lfingers 7.12502
lthumb 2.61572 15.6274
rfemur -12.4971 -0.0913962 29.2165
rtibia 34.0077
rfoot -19.0993 -7.41423
rtoes 9.156
lfemur -12.5595 1.22086 -9.63459
ltibia 36.0496
lfoot -19.3755 1.5285
ltoes -0.11816
512
root 3.25547 17.6971 10.7341 107.237 -83.1835 -100.244
lowerback 15.8155 -0.635815 3.16657
upperback -1.96698 0.0314071 2.83045
thorax -11.0844 -0.0966139 1.29643
lowerneck 13.4625 -19.9126 -14.1848
upperneck -16.6794 -27.1792 19.3482
head -2.41978 -14.3297 8.56502
rclavicle -8.41418e-015 1.12562e-014
rhumerus 78.799 -0.729892 -70.3678
rradius 54.8055
rwrist 15.2976
rhand -23.8951 -6.00478
rfingers 7.12502
rthumb 2.57864 -35.9689
lclavicle -8.41418e-015 1.12562e-014
lhumerus 75.0404 9.58458 55.2405
lradius 50.0363
lwrist -18.07
lhand -23.7851 -14.4967
lfingers 7.12502
lthumb 2.6849 15.4662
rfemur -12.9813 -0.729969 29.297
rtibia 33.9513
rfoot -19.5246 -7.25073
rtoes 9.64298
lfemur -13.2815 1.11414 -9.70804
ltibia 36.3954
lfoot -19.6321 1.8949
ltoes 0.683748
513
root 3.36914 17.7023 10.7339 109.795 -83.8807 -102.595
lowerback 15.6997 -0.535596 2.23083
upperback -1.73464 -0.0601979 2.46874
thorax -10.7514 -0.0899627 1.4447
lowerneck 13.5197 -19.9512 -13.7222
upperneck -17.3327 -27.0433 20.3634
head -2.54016 -14.3871 8.86032
rclavicle -3.03147e-015 -4.62174e-015
rhumerus 80.3726 -1.21836 -70.4517
rradius 52.4702
rwrist 15.2224
rhand -24.4934 -5.38509
rfingers 7.12502
rthumb 2.00089 -35.3555
lclavicle -3.03147e-015 -4.62174e-015
lhumerus 76.7569 9.92887 54.2931
lradius 48.0947
lwrist -17.1759
lhand -23.3666 -14.5717
lfingers 7.12502
lthumb 3.08911 15.3857
rfemur -13.6069 -0.23843 28.6052
rtibia 34.0084
rfoot -19.6972 -8.20821
rtoes 9.08441
lfemur -14.054 1.06253 -10.6139
ltibia 36.6708
lfoot -19.7697 2.15973
ltoes 1.50533
514
root 3.48363 17.7063 10.7338 112.581 -84.3533 -105.087
lowerback 15.5356 -0.424101 1.51034
upperback -1.46621 -0.0740725 2.35336
thorax -10.3543 -0.0574147 1.72205
lowerneck 13.2646 -20.0858 -13.9573
upperneck -17.8899 -27.13 21.4558
head -2.43844 -14.5248 9.15954
rclavicle -5.5287e-016 7.95139e-016
rhumerus 82.0291 -1.64221 -69.9145
rradius 50.3473
rwrist 14.959
rhand -25.0443 -4.8572
rfingers 7.12502
rthumb 1.46883 -34.8319
lclavicle -5.5287e-016 7.95139e-016
lhumerus 78.4431 10.4659 53.7119
lradius 46.0877
lwrist -16.3874
lhand -23.0499 -14.7603
lfingers 7.12502
lthumb 3.39488 15.1925
rfemur -14.3961 0.0238131 28.0776
rtibia 34.0837
rfoot -19.6926 -8.6156
rtoes 8.95912
lfemur -14.9221 1.21426 -11.2481
ltibia 36.8747
lfoot -19.6774 2.34215
ltoes 1.07199
